<?xml version="1.0" encoding="UTF-8"?>
<svg width="108px" height="35px" viewBox="0 0 108 35" version="1.1" xmlns="http://www.w3.org/2000/svg" xmlns:xlink="http://www.w3.org/1999/xlink">
    <!-- Generator: Sketch 40.1 (33804) - http://www.bohemiancoding.com/sketch -->
    <title>Combined Shape Copy</title>
    <desc>Created with Sketch.</desc>
    <defs></defs>
    <g id="WEB" stroke="none" stroke-width="1" fill="none" fill-rule="evenodd">
        <g id="user" transform="translate(-25.000000, -23.000000)" fill="#FFFFFF">
            <g id="left-bar">
                <g id="brand">
                    <g id="Group" transform="translate(25.000000, 0.000000)">
                        <path d="M6.03318584,47.7483526 C6.45132743,48.921593 7.31747788,49.643587 8.42256637,49.643587 L8.90044248,49.643587 C10.005531,49.643587 10.8418142,48.9516761 11.2599558,47.7483526 L15.3816372,30.6711871 L19.5033186,56.1047655 C19.9214602,57.308089 20.7577434,58 21.8628319,58 L22.340708,58 C23.4457965,58 24.3119469,57.2780059 24.7300885,56.1047655 L30.5840708,39.5590679 C30.6736726,39.2883201 30.7632743,38.9273231 30.7632743,38.6565753 C30.7632743,37.3930857 29.7477876,36.4304269 28.4933628,36.4304269 C27.3584071,36.4304269 26.5818584,37.1825041 26.2831858,38.0849967 L22.340708,49.643587 C22.340708,49.643587 21.3869381,46.0951745 20.9100532,43.1450845 C19.9234425,37.0417458 17.9502212,24.8350683 17.9502212,24.8350683 C17.5918142,23.7219941 16.7853982,23 15.6205752,23 L15.2621681,23 C14.0973451,23 13.2909292,23.7520772 12.9325221,24.8350683 L8.42256637,43.4602058 L4.59955752,36.4137141 C4.30088496,35.4510553 3.43473451,34.7591443 2.35951327,34.7591443 C1.07522124,34.7591443 0,35.7218031 0,37.0153758 C0,37.2861236 0.0896017699,37.6170375 0.17920354,37.8877853 L6.03318584,47.7483526 Z M48.3252212,49.3126731 C49.460177,49.3126731 50.3860619,48.4101805 50.3860619,47.2670232 C50.3860619,46.1238659 49.460177,45.1912902 48.3252212,45.1912902 L38.8573009,45.1912902 L38.8573009,40.7690765 L46.8318584,40.7690765 C47.9668142,40.7690765 48.8926991,39.8665839 48.8926991,38.7234266 C48.8926991,37.5802693 47.9668142,36.6476936 46.8318584,36.6476936 L38.8573009,36.6476936 L38.8573009,32.3758953 L48.175885,32.3758953 C49.3108407,32.3758953 50.2367257,31.4734027 50.2367257,30.3302454 C50.2367257,28.2545125 50.3860619,28.2545125 48.175885,28.2545125 L41.6261116,28.2545125 L36.5873894,28.2545125 C35.3030973,28.2545125 34.2876106,29.2773374 34.2876106,30.5709101 L34.2876106,46.9962754 C34.2876106,48.2898482 35.3030973,49.3126731 36.5873894,49.3126731 L48.3252212,49.3126731 Z M54.6404867,46.9361093 C54.6404867,48.229682 55.6559735,49.2525069 56.9402655,49.2525069 L67.7522124,49.2525069 C68.9170354,49.2525069 69.8429204,48.3199312 69.8429204,47.1466909 C69.8429204,45.9734505 68.9170354,45.0408748 67.7522124,45.0408748 L59.2400442,45.0408748 L59.2400442,30.3302454 C59.2400442,29.0366727 58.2245575,28.0138478 56.9402655,28.0138478 C54.6404867,28.0138478 54.6404867,28.0138478 54.6404867,30.3302454 L54.6404867,46.9361093 Z M80.2234513,49.613504 C84.7334071,49.613504 87.8993363,47.2670232 87.8993363,43.0854742 L87.8993363,43.025308 C87.8993363,39.3551714 85.5099558,37.820934 81.2688053,36.7078598 C77.6548673,35.7752841 76.7588496,35.3240378 76.7588496,33.9402158 L76.7588496,33.8800497 C76.7588496,32.8572247 77.6847345,32.0449814 79.4469027,32.0449814 C80.880531,32.0449814 82.3141593,32.5563938 83.8373894,33.4588864 C84.1957965,33.6694681 84.5542035,33.7898004 85.0022124,33.7898004 C86.1969027,33.7898004 87.1526549,32.8572247 87.1526549,31.6539013 C87.1526549,30.7514087 86.6449115,30.1196638 86.1371681,29.818833 C84.255531,28.6155095 82.045354,27.9536816 79.5066372,27.9536816 C75.2356195,27.9536816 72.1891593,30.4806609 72.1891593,34.3012129 L72.1891593,34.361379 C72.1891593,38.5429281 74.9070796,39.7161685 79.1183628,40.7991596 C82.6128319,41.7016522 83.329646,42.3033139 83.329646,43.4765543 L83.329646,43.5367205 C83.329646,44.770127 82.1946903,45.5222042 80.3130531,45.5222042 C78.2820796,45.5222042 76.5497788,44.8002101 74.9668142,43.6269697 C74.6681416,43.4163881 74.25,43.2058065 73.6526549,43.2058065 C72.4579646,43.2058065 71.5022124,44.1383822 71.5022124,45.3417057 C71.5022124,46.0636997 71.8606195,46.7255276 72.3683628,47.0865247 C74.6980088,48.7711775 77.4756637,49.613504 80.2234513,49.613504 Z M105.939159,49.3126731 C107.074115,49.3126731 108,48.4101805 108,47.2670232 C108,46.1238659 107.074115,45.1912902 105.939159,45.1912902 L96.4712389,45.1912902 L96.4712389,40.7690765 L104.445796,40.7690765 C105.580752,40.7690765 106.506637,39.8665839 106.506637,38.7234266 C106.506637,37.5802693 105.580752,36.6476936 104.445796,36.6476936 L96.4712389,36.6476936 L96.4712389,32.3758953 L105.789823,32.3758953 C106.924779,32.3758953 107.850664,31.4734027 107.850664,30.3302454 C107.850664,28.2545125 108,28.2545125 105.789823,28.2545125 L94.2013274,28.2545125 C92.9170354,28.2545125 91.9015487,29.2773374 91.9015487,30.5709101 L91.9015487,46.9962754 C91.9015487,48.2898482 92.9170354,49.3126731 94.2013274,49.3126731 L105.939159,49.3126731 Z" id="Combined-Shape-Copy"></path>
                    </g>
                </g>
            </g>
        </g>
    </g>
</svg>