<?xml version="1.0" encoding="UTF-8"?>
<svg width="55px" height="70px" viewBox="0 0 55 70" version="1.1" xmlns="http://www.w3.org/2000/svg" xmlns:xlink="http://www.w3.org/1999/xlink">
    <!-- Generator: Sketch 40.1 (33804) - http://www.bohemiancoding.com/sketch -->
    <title>heart</title>
    <desc>Created with Sketch.</desc>
    <defs></defs>
    <g id="WEB" stroke="none" stroke-width="1" fill="none" fill-rule="evenodd">
        <g id="user" transform="translate(-673.000000, -188.000000)">
            <g id="Group-2-Copy-2" transform="translate(570.000000, 110.000000)">
                <g id="Group-4" transform="translate(28.000000, 25.000000)">
                    <g id="heart" transform="translate(74.000000, 53.000000)">
                        <g id="Capa_1">
                            <g id="Group">
                                <path d="M51.7523404,53.2941379 C50.2427234,41.755 50.5525106,29.3384483 38.1240851,22.0862069 C37.3758298,21.6493103 37.5652766,20.5136207 38.418383,20.3736207 C39.8541277,20.137069 41.0801702,19.915 41.9332766,19.3115517 L40.4629787,19.3115517 C38.4886809,19.3115517 36.8885106,17.6906897 36.8885106,15.6908621 C36.8885106,13.6910345 38.4886809,12.0701724 40.4629787,12.0701724 L41.4006809,12.0701724 C40.5594894,11.5825862 39.4942979,11.4462069 38.3516596,11.432931 C37.5950638,11.4244828 36.9302128,10.9236207 36.684766,10.1994828 C36.4059574,9.37396552 36.0747234,8.6112069 35.7053617,7.90637931 L37.4068085,6.18293103 C38.803234,4.76965517 38.803234,2.47655172 37.4068085,1.06206897 C36.010383,-0.352413793 33.7477447,-0.351206897 32.3513191,1.06206897 L30.5414468,2.89534483 C28.3514894,2.02396552 25.930383,2.20258621 23.6713191,3.63758621 C22.9409362,4.10224138 21.9722553,3.87655172 21.4539574,3.17775862 C20.9142128,2.4487931 20.3542128,1.75724138 19.6333617,1.38672414 C18.7981277,0.955862069 17.1955745,1.36741379 16.3174468,1.97206897 C15.8348936,2.30396552 15.9945532,3.83431034 16.125617,4.78775862 C16.3043404,6.09 17.0716596,7.69275862 17.0978723,8.80431034 L17.0978723,8.80310345 C19.6881702,10.5410345 22.8944681,13.697069 21.3979574,18.1046552 C19.8728511,22.5931034 11.8291064,28.9546552 5.09838298,30.612931 C2.34842553,40.6072414 4.27029787,49.6710345 11.5622128,57.5931034 C20.9559149,67.7998276 33.152,70.6686207 46.4454468,69.7405172 C50.1557447,69.4810345 52.299234,67.1312069 52.3671489,63.3934483 C52.4302979,60.0298276 52.189617,56.6324138 51.7523404,53.2941379 L51.7523404,53.2941379 Z" id="Shape" fill="#C5411E"></path>
                                <path d="M18.3358298,50.3505172 C12.2473191,43.7343103 9.91557447,36.3203448 10.9080851,28.2365517 C8.9826383,29.2998276 6.99046809,30.1458621 5.09838298,30.6117241 C2.34842553,40.6060345 4.27029787,49.6698276 11.5622128,57.5918966 C20.9559149,67.7986207 33.152,70.6674138 46.4454468,69.7393103 C50.1557447,69.4798276 52.299234,67.13 52.3671489,63.3922414 C52.3719149,63.1098276 52.3635745,62.825 52.364766,62.5413793 C39.4061277,63.2896552 27.5269787,60.3375862 18.3358298,50.3505172 L18.3358298,50.3505172 Z" id="Shape" fill="#B02721"></path>
                                <path d="M17.0990638,8.80189655 C17.1062128,9.11448276 17.0657021,9.39568966 16.9227234,9.61172414 C16.1673191,10.757069 13.8248511,11.3858621 12.2282553,11.2868966 C11.7909787,11.2603448 11.3965957,11.2591379 11.0355745,11.282069 L5.02093617,5.18724138 C4.3453617,4.50293103 3.25038298,4.50293103 2.57480851,5.18724138 L1.65021277,6.1237931 C0.974638298,6.80810345 0.974638298,7.91724138 1.65021277,8.60155172 L7.79234043,14.8231034 C7.76731915,15.1006897 7.74229787,15.3782759 7.73514894,15.692069 C7.64697872,19.5118966 7.55046809,23.5851724 6.2386383,27.0767241 C5.7906383,28.267931 5.4212766,29.4446552 5.09957447,30.6117241 C11.8302979,28.9534483 19.8740426,22.5918966 21.3991489,18.1034483 C22.8968511,13.6958621 19.6905532,10.5398276 17.0990638,8.80189655 L17.0990638,8.80189655 Z" id="Shape" fill="#C29AB4"></path>
                                <path d="M48.8034043,19.3103448 L40.4629787,19.3103448 C38.4886809,19.3103448 36.8885106,17.6894828 36.8885106,15.6896552 C36.8885106,13.6898276 38.4886809,12.0689655 40.4629787,12.0689655 L48.8034043,12.0689655 C50.7777021,12.0689655 52.3778723,13.6898276 52.3778723,15.6896552 C52.3778723,17.6894828 50.7777021,19.3103448 48.8034043,19.3103448 L48.8034043,19.3103448 Z" id="Shape" fill="#9A879A"></path>
                                <ellipse id="Oval" fill="#556080" cx="48.8034043" cy="15.6896552" rx="3.57446809" ry="3.62068966"></ellipse>
                                <path d="M41.6544681,60.3448276 C40.9955745,60.3448276 40.4629787,59.8053448 40.4629787,59.137931 L40.4629787,56.2498276 C31.8377872,51.6358621 26.6190638,45.9163793 24.9474043,39.2422414 C22.7931915,30.6467241 27.3697021,23.7444828 27.5651064,23.4548276 C27.9368511,22.9056897 28.6779574,22.7656897 29.2188936,23.1410345 C29.7622128,23.5163793 29.901617,24.267069 29.5334468,24.8174138 C29.4917447,24.8801724 25.363234,31.1548276 27.2648511,38.6786207 C28.8125957,44.8036207 33.8371064,50.107931 42.1977872,54.4418966 C42.5957447,54.6494828 42.8459574,55.0646552 42.8459574,55.5172414 L42.8459574,59.137931 C42.8459574,59.8053448 42.3133617,60.3448276 41.6544681,60.3448276 L41.6544681,60.3448276 Z" id="Shape" fill="#F7B563"></path>
                                <path d="M54.6142979,31.6110345 L52.189617,31.0389655 L53.8886809,29.1948276 C54.5404255,28.4875862 54.5022979,27.3796552 53.8040851,26.7182759 L52.8485106,25.8143103 C52.1502979,25.1541379 51.0553191,25.1927586 50.4035745,25.9 L46.8326809,29.7753448 L46.1046809,29.6039655 C47.2306383,31.3648276 48.0837447,33.2355172 48.7414468,35.1822414 L53.533617,36.3118966 C54.4641702,36.5315517 55.3935319,35.945 55.610383,35.0024138 L55.9070638,33.7134483 C56.1239149,32.772069 55.5448511,31.8306897 54.6142979,31.6110345 L54.6142979,31.6110345 Z" id="Shape" fill="#BA98B1"></path>
                                <path d="M41.6556596,56.7241379 C41.2708085,56.7241379 40.8919149,56.5358621 40.6631489,56.187069 C40.2973617,55.6318966 40.4451064,54.8836207 40.9931915,54.5131034 L44.5676596,52.0993103 C45.1169362,51.73 45.8556596,51.8784483 46.2202553,52.4336207 C46.5860426,52.9887931 46.4382979,53.737069 45.8902128,54.1075862 L42.3157447,56.5213793 C42.112,56.6577586 41.883234,56.7241379 41.6556596,56.7241379 L41.6556596,56.7241379 Z" id="Shape" fill="#F7B563"></path>
                                <path d="M24.973617,62.7586207 L24.9664681,62.7586207 C24.308766,62.755 23.7785532,62.2118966 23.7821277,61.5444828 L23.8011915,58.2182759 C18.8493617,52.2827586 19.0411915,43.7210345 24.3135319,38.9296552 C24.803234,38.4843103 25.5550638,38.5253448 25.9959149,39.0213793 C26.4355745,39.5174138 26.3950638,40.2801724 25.9053617,40.7255172 C21.5051915,44.7251724 21.4944681,52.01 25.8815319,56.9631034 C26.0793191,57.1863793 26.1877447,57.4760345 26.1865532,57.7765517 L26.1651064,61.5589655 C26.1615319,62.2227586 25.6289362,62.7586207 24.973617,62.7586207 L24.973617,62.7586207 Z" id="Shape" fill="#F7B563"></path>
                                <path d="M42.2454468,41.0344828 C41.8689362,41.0344828 41.498383,40.8546552 41.267234,40.517931 C39.1034894,37.3751724 36.563234,34.9118966 34.1135319,33.5818966 C31.3826383,32.0986207 28.9400851,32.095 26.8466383,33.5758621 C26.3080851,33.9560345 25.5634043,33.822069 25.1868936,33.2765517 C24.8115745,32.7298276 24.9426383,31.977931 25.482383,31.5953448 C28.3300426,29.5834483 31.7055319,29.5339655 35.2382979,31.4541379 C38.0120851,32.9603448 40.8466383,35.6891379 43.2212766,39.1360345 C43.5965957,39.6827586 43.4655319,40.4346552 42.9257872,40.8172414 C42.7184681,40.9632759 42.4801702,41.0344828 42.2454468,41.0344828 L42.2454468,41.0344828 Z" id="Shape" fill="#F7B563"></path>
                                <path d="M38.08,42.2413793 C37.4211064,42.2413793 36.8885106,41.7018966 36.8885106,41.0344828 L36.8885106,36.2068966 C36.8885106,35.827931 37.0648511,35.4694828 37.3651064,35.2413793 L42.1310638,31.6206897 C42.6553191,31.2212069 43.4035745,31.3274138 43.7979574,31.862069 C44.1935319,32.3943103 44.0862979,33.1510345 43.5596596,33.5505172 L39.2702979,36.8091379 L39.2702979,41.0344828 C39.2714894,41.7018966 38.7388936,42.2413793 38.08,42.2413793 L38.08,42.2413793 Z" id="Shape" fill="#F7B563"></path>
                                <path d="M28.5480851,59.137931 L24.973617,59.137931 C24.3147234,59.137931 23.7821277,58.5984483 23.7821277,57.9310345 C23.7821277,57.2636207 24.3147234,56.7241379 24.973617,56.7241379 L28.5480851,56.7241379 C29.2069787,56.7241379 29.7395745,57.2636207 29.7395745,57.9310345 C29.7395745,58.5984483 29.2069787,59.137931 28.5480851,59.137931 L28.5480851,59.137931 Z" id="Shape" fill="#F7B563"></path>
                                <path d="M33.3140426,57.9310345 C32.6551489,57.9310345 32.1225532,57.3915517 32.1225532,56.7241379 L32.1225532,49.4827586 C32.1225532,48.8153448 32.6551489,48.2758621 33.3140426,48.2758621 L40.4629787,48.2758621 C41.1218723,48.2758621 41.6544681,48.8153448 41.6544681,49.4827586 C41.6544681,50.1501724 41.1218723,50.6896552 40.4629787,50.6896552 L34.5055319,50.6896552 L34.5055319,56.7241379 C34.5055319,57.3915517 33.9729362,57.9310345 33.3140426,57.9310345 L33.3140426,57.9310345 Z" id="Shape" fill="#F7B563"></path>
                            </g>
                        </g>
                    </g>
                </g>
            </g>
        </g>
    </g>
</svg>