<?xml version="1.0" encoding="UTF-8"?>
<svg width="74px" height="70px" viewBox="0 0 74 70" version="1.1" xmlns="http://www.w3.org/2000/svg" xmlns:xlink="http://www.w3.org/1999/xlink">
    <!-- Generator: Sketch 40.1 (33804) - http://www.bohemiancoding.com/sketch -->
    <title>kidney</title>
    <desc>Created with Sketch.</desc>
    <defs></defs>
    <g id="WEB" stroke="none" stroke-width="1" fill="none" fill-rule="evenodd">
        <g id="user" transform="translate(-954.000000, -188.000000)">
            <g id="Group-2-Copy-3" transform="translate(860.000000, 110.000000)">
                <g id="Group-4" transform="translate(28.000000, 25.000000)">
                    <g id="kidney" transform="translate(66.000000, 53.000000)">
                        <g id="Capa_1">
                            <g id="Group">
                                <path d="M23.7096774,28.8925 C23.7096774,37.3355769 30.2034194,45.4717308 28.4516129,50.4309615 C26.1930968,56.8251923 20.8062581,57.1617308 16.5967742,57.1617308 C7.43129032,57.1617308 0,44.5051923 0,28.8925 C0,13.2798077 7.43129032,0.623269231 16.5967742,0.623269231 C22.1502581,0.623269231 28.1833548,5.26884615 28.4516129,12.4021154 C28.6263871,17.0436538 23.7096774,22.7378846 23.7096774,28.8925 L23.7096774,28.8925 Z" id="Shape" fill="#B34B4D"></path>
                                <path d="M49.7510323,28.8925 C49.7510323,37.3355769 43.2572903,45.4717308 45.0090968,50.4309615 C47.2676129,56.8251923 52.6544516,57.1617308 56.8639355,57.1617308 C66.0294194,57.1617308 73.4607097,44.5051923 73.4607097,28.8925 C73.4607097,13.2798077 66.0294194,0.623269231 56.8639355,0.623269231 C51.3104516,0.623269231 45.2773548,5.26884615 45.0090968,12.4021154 C44.8343226,17.0436538 49.7510323,22.7378846 49.7510323,28.8925 L49.7510323,28.8925 Z" id="Shape" fill="#B34B4D"></path>
                                <path d="M24.3870968,26.2001923 C23.637871,26.2001923 23.0322581,25.5984615 23.0322581,24.8540385 C23.0322581,24.1096154 23.637871,23.5078846 24.3870968,23.5078846 C28.5694839,23.5078846 32.8169032,16.6909615 32.8169032,11.7909615 C32.8169032,11.0465385 33.4225161,10.4448077 34.1717419,10.4448077 C34.9209677,10.4448077 35.5265806,11.0465385 35.5265806,11.7909615 C35.5252258,17.4798077 30.5353548,26.2001923 24.3870968,26.2001923 L24.3870968,26.2001923 Z" id="Shape" fill="#DD352E"></path>
                                <path d="M48.7741935,26.2001923 C42.6611613,26.2001923 38.2362581,17.5928846 38.2362581,11.7909615 C38.2362581,11.0465385 38.841871,10.4448077 39.5910968,10.4448077 C40.3403226,10.4448077 40.9459355,11.0465385 40.9459355,11.7909615 C40.9459355,16.4190385 44.4536129,23.5078846 48.7741935,23.5078846 C49.5234194,23.5078846 50.1290323,24.1096154 50.1290323,24.8540385 C50.1290323,25.5984615 49.5220645,26.2001923 48.7741935,26.2001923 L48.7741935,26.2001923 Z" id="Shape" fill="#DD352E"></path>
                                <path d="M24.3870968,26.2001923 C23.637871,26.2001923 23.0322581,25.5984615 23.0322581,24.8540385 C23.0322581,19.4263462 18.5111613,14.4832692 13.5483871,14.4832692 C12.7991613,14.4832692 12.1935484,13.8815385 12.1935484,13.1371154 C12.1935484,12.3926923 12.7991613,11.7909615 13.5483871,11.7909615 C20.0434839,11.7909615 25.7419355,17.8944231 25.7419355,24.8540385 C25.7419355,25.5971154 25.1349677,26.2001923 24.3870968,26.2001923 L24.3870968,26.2001923 Z" id="Shape" fill="#7383BF"></path>
                                <path d="M13.5483871,42.7525 C12.7991613,42.7525 12.1935484,42.1507692 12.1935484,41.4063462 C12.1935484,40.6619231 12.7991613,40.0601923 13.5483871,40.0601923 C18.8214194,40.0601923 22.3629677,34.4884615 22.3629677,29.2842308 C22.3629677,28.5398077 22.9685806,27.9380769 23.7178065,27.9380769 C24.4670323,27.9380769 25.0726452,28.5398077 25.0726452,29.2842308 C25.0726452,35.7888462 20.4418065,42.7525 13.5483871,42.7525 L13.5483871,42.7525 Z" id="Shape" fill="#F7B563"></path>
                                <path d="M60.5951613,42.7525 C54.1000645,42.7525 48.4016129,36.6490385 48.4016129,29.6894231 C48.4016129,28.945 49.0072258,28.3432692 49.7564516,28.3432692 C50.5056774,28.3432692 51.1112903,28.945 51.1112903,29.6894231 C51.1112903,35.1171154 55.6323871,40.0601923 60.5951613,40.0601923 C61.3443871,40.0601923 61.95,40.6619231 61.95,41.4063462 C61.95,42.1507692 61.3443871,42.7525 60.5951613,42.7525 L60.5951613,42.7525 Z" id="Shape" fill="#F7B563"></path>
                                <path d="M48.7741935,26.5986538 C48.0249677,26.5986538 47.4193548,25.9969231 47.4193548,25.2525 C47.4193548,18.8973077 52.634129,11.7909615 59.6129032,11.7909615 C60.362129,11.7909615 60.9677419,12.3926923 60.9677419,13.1371154 C60.9677419,13.8815385 60.362129,14.4832692 59.6129032,14.4832692 C54.272129,14.4832692 50.1290323,20.2730769 50.1290323,25.2525 C50.1290323,25.9955769 49.5220645,26.5986538 48.7741935,26.5986538 L48.7741935,26.5986538 Z" id="Shape" fill="#7383BF"></path>
                                <path d="M59.2403226,26.5986538 L50.3986452,26.5986538 C50.3945806,26.5986538 50.391871,26.6 50.3878065,26.6 C44.3912903,26.6161538 39.2266452,30.1753846 36.8800645,35.2732692 C34.5280645,30.1632692 29.3458065,26.5986538 23.3316774,26.5986538 C23.1894194,26.5986538 23.0593548,26.6390385 22.9306452,26.6794231 L14.9032258,26.6794231 C14.154,26.6794231 13.5483871,27.2811538 13.5483871,28.0255769 C13.5483871,28.77 14.154,29.3717308 14.9032258,29.3717308 L23.7449032,29.3717308 C23.8289032,29.3717308 23.9020645,29.3394231 23.982,29.3246154 C30.4025806,29.6638462 35.5252258,34.9448077 35.5252258,41.4076923 L35.5252258,68.3307692 C35.5252258,69.0751923 36.1308387,69.6769231 36.8800645,69.6769231 C37.6292903,69.6769231 38.2349032,69.0751923 38.2349032,68.3307692 L38.2349032,41.4076923 C38.2349032,34.7267308 43.7043871,29.2923077 50.4284516,29.2923077 L59.2403226,29.2923077 C59.9895484,29.2923077 60.5951613,28.6905769 60.5951613,27.9461538 C60.5951613,27.2017308 59.9895484,26.5986538 59.2403226,26.5986538 L59.2403226,26.5986538 Z" id="Shape" fill="#DD352E"></path>
                            </g>
                        </g>
                    </g>
                </g>
            </g>
        </g>
    </g>
</svg>