<?xml version="1.0" encoding="UTF-8"?>
<svg width="76px" height="70px" viewBox="0 0 76 70" version="1.1" xmlns="http://www.w3.org/2000/svg" xmlns:xlink="http://www.w3.org/1999/xlink">
    <!-- Generator: Sketch 40.1 (33804) - http://www.bohemiancoding.com/sketch -->
    <title>liver</title>
    <desc>Created with Sketch.</desc>
    <defs></defs>
    <g id="WEB" stroke="none" stroke-width="1" fill="none" fill-rule="evenodd">
        <g id="user" transform="translate(-374.000000, -188.000000)">
            <g id="Group-2-Copy" transform="translate(280.000000, 110.000000)">
                <g id="Group-3" transform="translate(70.000000, 25.000000)">
                    <g id="liver" transform="translate(24.000000, 53.000000)">
                        <g id="Capa_1">
                            <g id="Group">
                                <path d="M73.7742857,0.655576923 L44.7517857,0.655576923 L42.0375,0.655576923 L17.9889286,0.655576923 C9.52035714,0.655576923 -11.8288571,13.8276923 8.55542857,57.9101923 L8.52964286,58.625 C8.50657143,59.3236538 9.08607143,59.8890385 9.78907143,59.8486538 C13.9432857,59.6117308 26.8022143,57.9451923 30.2005,46.4248077 C30.2005,46.4248077 56.4666429,48.1653846 59.9355,25.4625 L59.9355,25.4625 C66.9573571,20.965 73.7525714,13.9676923 75.9212857,3.24423077 C76.1927143,1.9075 75.1477143,0.655576923 73.7742857,0.655576923 L73.7742857,0.655576923 Z" id="Shape" fill="#B95150"></path>
                                <path d="M41.059,32.9632692 C15.4157857,37.4796154 9.75514286,49.0417308 8.63685714,55.4467308 L8.52964286,58.625 C8.50657143,59.3236538 9.08607143,59.8890385 9.78907143,59.8486538 C13.9432857,59.6117308 26.8022143,57.9451923 30.2005,46.4248077 C30.2005,46.4248077 56.4666429,48.1653846 59.9355,25.4625 C50.6947143,31.3815385 41.059,32.9632692 41.059,32.9632692 L41.059,32.9632692 Z" id="Shape" fill="#7F2E2B"></path>
                                <path d="M73.7742857,0.655576923 L44.7517857,0.655576923 C44.7517857,11.7896154 35.6195714,20.8478846 24.3946429,20.8478846 C23.6441429,20.8478846 23.0375,20.2461538 23.0375,19.5017308 C23.0375,18.7573077 23.6441429,18.1555769 24.3946429,18.1555769 C34.1226429,18.1555769 42.0375,10.3048077 42.0375,0.655576923 L17.9889286,0.655576923 C9.52035714,0.655576923 -11.8288571,13.8276923 8.55542857,57.9115385 L8.63821429,55.4467308 C9.65607143,49.6125 14.4508571,39.5028846 34.6763571,34.3323077 C34.7401429,34.3161538 34.8066429,34.3013462 34.8717857,34.2838462 C35.6874286,34.0778846 36.5315714,33.8813462 37.3974286,33.6915385 C37.6295,33.6403846 37.8629286,33.5892308 38.0990714,33.5394231 C39.0585714,33.3375 40.0384286,33.1423077 41.0617143,32.9619231 C41.0617143,32.9619231 41.1024286,32.9551923 41.1607857,32.9444231 C41.1716429,32.9430769 41.1933571,32.9376923 41.2055714,32.9363462 C41.2707143,32.9242308 41.3575714,32.9080769 41.4675,32.8878846 C41.4905714,32.8838462 41.5217857,32.8771154 41.5475714,32.8717308 C41.6656429,32.8488462 41.8054286,32.8205769 41.9642143,32.7869231 C41.9967857,32.7801923 42.0347857,32.7721154 42.0687143,32.7640385 C42.2424286,32.7263462 42.4378571,32.6832692 42.6522857,32.6348077 C42.6862143,32.6267308 42.7201429,32.6186538 42.7554286,32.6105769 C43.0010714,32.5540385 43.2684286,32.4907692 43.5588571,32.4180769 C43.5683571,32.4153846 43.5778571,32.4126923 43.5873571,32.4113462 C45.163,32.0182692 47.3697143,31.3869231 49.9048571,30.4351923 L49.9062143,30.4351923 C50.4042857,30.2480769 50.9159286,30.0475 51.4370714,29.8348077 C51.4547143,29.8280769 51.4737143,29.82 51.4913571,29.8132692 C52.0084286,29.6019231 52.535,29.3784615 53.0697143,29.1401923 C53.0805714,29.1348077 53.0927857,29.1307692 53.1036429,29.1253846 C55.3035714,28.1453846 57.6337857,26.9392308 59.9395714,25.4625 L59.9395714,25.4625 C66.9614286,20.965 73.7566429,13.9676923 75.9253571,3.24423077 C76.1927143,1.9075 75.1477143,0.655576923 73.7742857,0.655576923 L73.7742857,0.655576923 Z" id="Shape" fill="#B95150"></path>
                                <path d="M24.3946429,18.1555769 C23.6441429,18.1555769 23.0375,18.7573077 23.0375,19.5017308 C23.0375,20.2461538 23.6441429,20.8478846 24.3946429,20.8478846 C35.6195714,20.8478846 44.7517857,11.7896154 44.7517857,0.655576923 L42.0375,0.655576923 C42.0375,10.3048077 34.1212857,18.1555769 24.3946429,18.1555769 L24.3946429,18.1555769 Z" id="Shape" fill="#F7B563"></path>
                                <g transform="translate(17.642857, 37.692308)" id="Shape" fill="#F7B563">
                                    <path d="M18.9660714,0.655576923 C15.5365714,0.655576923 12.6010714,2.77307692 11.4027143,5.75615385 C10.2043571,5.09519231 8.59207143,4.69403846 6.75178571,4.69403846 C6.00128571,4.69403846 5.39464286,5.29576923 5.39464286,6.04019231 C5.39464286,6.78461538 6.00128571,7.38634615 6.75178571,7.38634615 C7.64071429,7.38634615 8.38171429,7.50615385 8.98971429,7.67307692 C4.50571429,8.49961538 1.32321429,11.0344231 1.32321429,14.1171154 C1.32321429,14.8615385 1.92985714,15.4632692 2.68035714,15.4632692 C3.43085714,15.4632692 4.0375,14.8615385 4.0375,14.1171154 C4.0375,12.3926923 6.76535714,10.4973077 10.8232143,10.1432692 L10.8232143,30.2709615 C10.8232143,31.0153846 11.4298571,31.6171154 12.1803571,31.6171154 C12.9308571,31.6171154 13.5375,31.0153846 13.5375,30.2709615 L13.5375,8.7325 C13.5375,5.76288462 15.9722143,3.34788462 18.9660714,3.34788462 C19.7165714,3.34788462 20.3232143,2.74615385 20.3232143,2.00173077 C20.3232143,1.25865385 19.7152143,0.655576923 18.9660714,0.655576923 L18.9660714,0.655576923 Z"></path>
                                    <path d="M16.2517857,7.38634615 C15.5012857,7.38634615 14.8946429,7.98807692 14.8946429,8.7325 L14.8946429,30.2709615 C14.8946429,31.0153846 15.5012857,31.6171154 16.2517857,31.6171154 C17.0022857,31.6171154 17.6089286,31.0153846 17.6089286,30.2709615 L17.6089286,8.7325 C17.6089286,7.98942308 17.0009286,7.38634615 16.2517857,7.38634615 L16.2517857,7.38634615 Z"></path>
                                </g>
                            </g>
                        </g>
                    </g>
                </g>
            </g>
        </g>
    </g>
</svg>