<?xml version="1.0" encoding="UTF-8"?>
<svg width="80px" height="70px" viewBox="0 0 80 70" version="1.1" xmlns="http://www.w3.org/2000/svg" xmlns:xlink="http://www.w3.org/1999/xlink">
    <!-- Generator: Sketch 40.1 (33804) - http://www.bohemiancoding.com/sketch -->
    <title>sphygmomanometer</title>
    <desc>Created with Sketch.</desc>
    <defs></defs>
    <g id="WEB" stroke="none" stroke-width="1" fill="none" fill-rule="evenodd">
        <g id="staff" transform="translate(-625.000000, -188.000000)">
            <g id="Group-2-Copy" transform="translate(535.000000, 110.000000)">
                <g id="Group-4" transform="translate(65.000000, 25.000000)">
                    <g id="sphygmomanometer" transform="translate(25.000000, 53.000000)">
                        <g id="Layer_1">
                            <path d="M54.8103111,54.1947778 L49.0944222,54.1947778 C44.9174444,54.1947778 41.5191778,50.7965111 41.5191778,46.6195333 L41.5191778,32.4039333 C41.5191778,28.6502222 47.2005333,28.6463333 47.2005333,32.4039333 L47.2005333,46.6195333 C47.2005333,47.6637778 48.0500222,48.5132667 49.0942667,48.5132667 L54.8101556,48.5132667 C58.5640222,48.5134222 58.5679111,54.1947778 54.8103111,54.1947778 L54.8103111,54.1947778 Z" id="Shape" fill="#808285"></path>
                            <path d="M54.8103111,69.8567333 L24.1792444,69.8567333 C17.3917333,69.8567333 11.8695111,64.3346667 11.8695111,57.547 L11.8695111,26.7227333 C11.8695111,22.9690222 17.5508667,22.9651333 17.5508667,26.7227333 L17.5508667,57.547 C17.5508667,61.2017778 20.5243111,64.1752222 24.1790889,64.1752222 L54.8103111,64.1752222 C56.3790889,64.1752222 57.6510667,65.4470444 57.6510667,67.0159778 C57.6510667,68.5850667 56.3792444,69.8567333 54.8103111,69.8567333 L54.8103111,69.8567333 Z" id="Shape" fill="#939598"></path>
                            <path d="M14.7102667,29.5633333 C6.59897778,29.5633333 0,22.9645111 0,14.8532222 C0,6.74193333 6.59897778,0.142955556 14.7102667,0.142955556 C22.8214,0.142955556 29.4205333,6.74193333 29.4205333,14.8532222 C29.4205333,22.9645111 22.8215556,29.5633333 14.7102667,29.5633333 L14.7102667,29.5633333 Z" id="Shape" fill="#C7E9F4"></path>
                            <path d="M11.8695111,14.8532222 L11.8695111,11.1427556 C11.8695111,7.38904444 17.5508667,7.38515556 17.5508667,11.1427556 L17.5508667,14.8532222 C17.5508667,18.6067778 11.8695111,18.6108222 11.8695111,14.8532222 L11.8695111,14.8532222 Z" id="Shape" fill="#80D0E1"></path>
                            <path d="M47.0219556,35.2448444 L41.6980667,35.2448444 C37.8126,35.2448444 34.6517111,32.0839556 34.6517111,28.1984889 L34.6517111,12.8706667 C34.6517111,8.9852 37.8126,5.82431111 41.6980667,5.82431111 L47.0219556,5.82431111 C50.9074222,5.82431111 54.0683111,8.9852 54.0683111,12.8706667 L54.0683111,28.1983333 C54.0683111,32.0838 50.9072667,35.2448444 47.0219556,35.2448444 L47.0219556,35.2448444 Z" id="Shape" fill="#48AEE2"></path>
                            <path d="M54.8103111,64.1753778 L39.8222222,64.1753778 L39.8222222,69.8567333 L54.8103111,69.8567333 C56.3790889,69.8567333 57.6510667,68.5849111 57.6510667,67.0159778 C57.6510667,65.4472 56.3792444,64.1753778 54.8103111,64.1753778 L54.8103111,64.1753778 Z" id="Shape" fill="#808285"></path>
                            <path d="M47.0219556,5.82431111 C41.2704444,5.82431111 41.0147111,5.74995556 39.8223778,6.07973333 L39.8223778,34.9892667 C40.4200222,35.1546222 41.0486222,35.2446889 41.6982222,35.2446889 L47.0221111,35.2446889 C50.9075778,35.2446889 54.0684667,32.0838 54.0684667,28.1983333 L54.0684667,12.8706667 C54.0683111,8.98535556 50.9072667,5.82431111 47.0219556,5.82431111 L47.0219556,5.82431111 Z" id="Shape" fill="#39A3DB"></path>
                            <path d="M63.4998,69.8570444 L54.8110889,69.8570444 C53.2423111,69.8570444 51.9703333,68.5852222 51.9703333,67.0162889 L51.9703333,41.8800667 C51.9703333,40.3112889 53.2421556,39.0393111 54.8110889,39.0393111 L63.4998,39.0393111 C65.0685778,39.0393111 66.3405556,40.3111333 66.3405556,41.8800667 L66.3405556,67.0164444 C66.3405556,68.5852222 65.0687333,69.8570444 63.4998,69.8570444 L63.4998,69.8570444 Z" id="Shape" fill="#C7E9F4"></path>
                            <path d="M76.8036889,69.8570444 L60.6592,69.8570444 L60.6592,39.0393111 L76.8038444,39.0393111 C78.3726222,39.0393111 79.6446,40.3111333 79.6446,41.8800667 L79.6446,67.0164444 C79.6444444,68.5852222 78.3726222,69.8570444 76.8036889,69.8570444 L76.8036889,69.8570444 Z" id="Shape" fill="#39A3DB"></path>
                        </g>
                    </g>
                </g>
            </g>
        </g>
    </g>
</svg>